# xmcd CD database file
#
# Track frame offsets:
#	150
#	9547
#	21967
#	32534
#	45595
#	56664
#	66145
#	76476
#	88903
#	99735
#	110769
#	121580
#	134509
#	151492
#	164073
#	176730
#	186705
#	197320
#	208500
#	218211
#	227113
#	240850
#	254977
#	266150
#	275770
#	288657
#	298918
#	310126
#	320923
#
# Disc length: 4399 seconds
#
# Revision: 0
# Processed by: cddbd v1.5.2PL0 Copyright (c) Steve Scherf et al.
# Submitted via: CDex 1.51
#
DISCID=c9112d1d
DTITLE=Various Artist - Psychedelic States - Mississippi In The 60's
DYEAR=1966
DGENRE=Garage Rock
TTITLE0=Ravn' Blue - Love
TTITLE1=The Lancers - Somebody Help Me
TTITLE2=The Missing Links - Come Inside My Heart
TTITLE3=Soule Survivors - Goodbye
TTITLE4=The Sandpypers - I Wanna Be Your Man
TTITLE5=Strags - Psychedelic Soul
TTITLE6=Kicks - Go Away Go Away
TTITLE7=James and The James Gang - Hey Girl
TTITLE8=Ravin' Blue - Colors
TTITLE9=The Soul Shakers - It Really Works
TTITLE10=The Herdsmen - Fed Up
TTITLE11=The Kelts - Dont Go Away
TTITLE12=Flower Power - Mt. Olympus
TTITLE13=The Phinx - My Baby Don't Care
TTITLE14=Substantial Evidence - Death Angel
TTITLE15=Bob Morrison - I'm The Place
TTITLE16=The Riviaires - Bad Girl
TTITLE17=Joe Frank and The Knights - Can't Find A Way
TTITLE18=Rick's Continentals - You Can Live It Up
TTITLE19=Strags - Seven Different Ways
TTITLE20=Bridge - I Don't Think I'll Call You Again
TTITLE21=Soule Survivor - Shadows
TTITLE22=Ravin' Blue - It's Not Real
TTITLE23=The Reets - When You Brought Me You Girl
TTITLE24=The Soule Shakers - Catch That Girl
TTITLE25=The Continentals - No Other Love
TTITLE26=The One Way Street - Yard Dog
TTITLE27=The Lancers - You've Got To Forget Her
TTITLE28=Kicks -Love Is A Necessary Evil
EXTD=YEAR: 1966
EXTT0=
EXTT1=
EXTT2=
EXTT3=
EXTT4=
EXTT5=
EXTT6=
EXTT7=
EXTT8=
EXTT9=
EXTT10=
EXTT11=
EXTT12=
EXTT13=
EXTT14=
EXTT15=
EXTT16=
EXTT17=
EXTT18=
EXTT19=
EXTT20=
EXTT21=
EXTT22=
EXTT23=
EXTT24=
EXTT25=
EXTT26=
EXTT27=
EXTT28=
PLAYORDER=
